Coordinates
version=1
nRows=20
nColumns=38
inDegrees=no

Units are S.I. units (second, meters, Newtons, ...)
If the header above contains a line with 'inDegrees', this indicates whether rotational values are in degrees (yes) or radians (no).

endheader
time	pelvis_tilt	pelvis_list	pelvis_rotation	pelvis_tx	pelvis_ty	pelvis_tz	hip_flexion_r	hip_adduction_r	hip_rotation_r	knee_angle_r	ankle_angle_r	subtalar_angle_r	mtp_angle_r	hip_flexion_l	hip_adduction_l	hip_rotation_l	knee_angle_l	ankle_angle_l	subtalar_angle_l	mtp_angle_l	lumbar_extension	lumbar_bending	lumbar_rotation	arm_flex_r	arm_add_r	arm_rot_r	elbow_flex_r	pro_sup_r	wrist_flex_r	wrist_dev_r	arm_flex_l	arm_add_l	arm_rot_l	elbow_flex_l	pro_sup_l	wrist_flex_l	wrist_dev_l
0	2.74321	1.48642	-1.00602	0.640483	-0.362638	0.939982	0.278455	-0.0582331	-0.505023	0.483985	0.113492	0	0	0.117559	-0.0974298	0.0406509	1.28039	-0.249771	0	0	-0.112345	0.135581	-0.196225	-0.163072	-0.180407	0.0182872	0.47277	1.09328	0	0	-0.057451	-0.221551	0.423659	0.663384	0.886672	0	0
0.01	2.75394	1.48611	-1.02264	0.641341	-0.353028	0.941864	0.262634	-0.052248	-0.497017	0.474385	0.116339	0	0	0.148794	-0.0910889	0.0463651	1.31575	-0.223408	0	0	-0.113803	0.135278	-0.191193	-0.15806	-0.181734	0.0200755	0.475004	1.08897	0	0	-0.0624612	-0.22332	0.427715	0.658556	0.884014	0	0
0.02	2.77317	1.4855	-1.04831	0.642279	-0.343202	0.943883	0.244585	-0.0464468	-0.490179	0.46229	0.118613	0	0	0.177454	-0.0846904	0.0499279	1.34466	-0.197966	0	0	-0.116558	0.134544	-0.185673	-0.15439	-0.182594	0.0176859	0.482224	1.08288	0	0	-0.0689768	-0.225189	0.430262	0.655864	0.883146	0	0
0.03	2.79391	1.48534	-1.0765	0.643337	-0.333446	0.945877	0.226373	-0.0406579	-0.483449	0.448587	0.120201	0	0	0.205382	-0.0786117	0.0514147	1.36829	-0.175624	0	0	-0.119431	0.133263	-0.179242	-0.15109	-0.183257	0.0157636	0.490381	1.07627	0	0	-0.0765376	-0.227192	0.430953	0.655324	0.882437	0	0
0.04	2.81853	1.4852	-1.10963	0.64451	-0.323746	0.947846	0.207441	-0.0347062	-0.475861	0.433174	0.121682	0	0	0.2322	-0.0731532	0.0506235	1.3864	-0.158923	0	0	-0.122618	0.131403	-0.171802	-0.14791	-0.183808	0.0151316	0.498375	1.06919	0	0	-0.0850938	-0.229168	0.428541	0.656979	0.881191	0	0
0.05	2.85034	1.48438	-1.15149	0.645849	-0.313999	0.949823	0.187166	-0.0287147	-0.466857	0.416684	0.1232	0	0	0.256633	-0.0687798	0.0471126	1.39865	-0.147867	0	0	-0.126738	0.128929	-0.163125	-0.144685	-0.184331	0.0156809	0.505976	1.06127	0	0	-0.0946363	-0.231099	0.423414	0.660181	0.879735	0	0
0.06	2.8914	1.48408	-1.20369	0.647235	-0.304306	0.951685	0.167949	-0.0250039	-0.459623	0.402237	0.125461	0	0	0.28008	-0.0641943	0.0415351	1.40581	-0.141054	0	0	-0.130584	0.125152	-0.153463	-0.141257	-0.184975	0.0177777	0.512727	1.05244	0	0	-0.103864	-0.232521	0.417415	0.662759	0.878389	0	0
0.07	2.92048	1.47908	-1.24525	0.648898	-0.294577	0.953963	0.138832	-0.0136787	-0.439969	0.373081	0.121761	0	0	0.296902	-0.0646123	0.0337765	1.40684	-0.136872	0	0	-0.139758	0.123792	-0.142041	-0.136138	-0.182666	0.00342988	0.516719	1.07747	0	0	-0.113034	-0.231111	0.399564	0.664261	0.890105	0	0
0.08	2.96469	1.4758	-1.30311	0.650536	-0.284932	0.955924	0.114377	-0.00838563	-0.424883	0.352614	0.12152	0	0	0.313664	-0.0631534	0.02372	1.40337	-0.133023	0	0	-0.147461	0.119748	-0.130072	-0.131636	-0.18309	0.00532037	0.522228	1.0745	0	0	-0.121725	-0.231175	0.388771	0.665868	0.891129	0	0
0.09	3.01039	1.47158	-1.36387	0.652277	-0.275317	0.957817	0.089691	-0.00426132	-0.408174	0.333404	0.121533	0	0	0.327518	-0.0623474	0.0118547	1.39525	-0.127717	0	0	-0.156159	0.114989	-0.116754	-0.12676	-0.183536	0.00779921	0.527089	1.07191	0	0	-0.129717	-0.230909	0.378133	0.666399	0.892	0	0
0.1	3.05651	1.46677	-1.425	0.654027	-0.265774	0.959607	0.0648988	-0.00144666	-0.391043	0.31493	0.121642	0	0	0.339311	-0.0614957	-0.000495491	1.38295	-0.120525	0	0	-0.16525	0.109468	-0.10342	-0.121453	-0.183724	0.0107055	0.53076	1.06956	0	0	-0.137235	-0.230594	0.367463	0.666494	0.892562	0	0
0.11	3.10182	1.46142	-1.48506	0.655752	-0.256301	0.961287	0.0399707	0.000241902	-0.372848	0.296895	0.12172	0	0	0.349039	-0.0607745	-0.0134237	1.36659	-0.110684	0	0	-0.174601	0.103328	-0.0904326	-0.115694	-0.183951	0.0154106	0.533127	1.06757	0	0	-0.144189	-0.229996	0.357062	0.665693	0.892806	0	0
0.12	-3.14013	1.45607	-1.54091	0.657457	-0.246871	0.962813	0.015896	0.00104069	-0.354428	0.28002	0.121157	0	0	0.357167	-0.0605203	-0.0269589	1.34628	-0.0989467	0	0	-0.183377	0.0967761	-0.0780502	-0.1094	-0.184287	0.0220823	0.534263	1.06553	0	0	-0.150767	-0.229273	0.347566	0.663928	0.892221	0	0
0.13	-3.08202	1.45028	-1.6103	0.659994	-0.237722	0.964049	-0.00476057	0.00391332	-0.330644	0.268912	0.117268	0	0	0.365033	-0.0671075	-0.0376402	1.32125	-0.0803221	0	0	-0.192217	0.0858944	-0.0675531	-0.103914	-0.182874	0.029519	0.53541	1.06311	0	0	-0.156098	-0.23035	0.339119	0.661525	0.890943	0	0
0.14	-3.06437	1.4467	-1.64489	0.660641	-0.228104	0.965171	-0.0253479	-0.00270378	-0.327258	0.2572	0.124615	0	0	0.370409	-0.0595767	-0.054463	1.29479	-0.070923	0	0	-0.198247	0.0827219	-0.05464	-0.097063	-0.185129	0.0367858	0.53631	1.05957	0	0	-0.16297	-0.227748	0.331859	0.659665	0.889226	0	0
0.15	-3.0386	1.43549	-1.67963	0.663273	-0.218689	0.966725	-0.061574	0.00711253	-0.286885	0.225565	0.110019	0	0	0.367334	-0.0706615	-0.0652385	1.2604	-0.0487658	0	0	-0.212098	0.0742536	-0.0470387	-0.0887516	-0.181367	0.0354951	0.530702	1.09502	0	0	-0.169033	-0.227808	0.316061	0.659465	0.890976	0	0
0.16	-3.01806	1.42921	-1.71104	0.664682	-0.209253	0.967701	-0.0864889	0.00644807	-0.269633	0.209024	0.108952	0	0	0.36753	-0.0714992	-0.0782499	1.22483	-0.031695	0	0	-0.220133	0.0681552	-0.0394541	-0.0812584	-0.181484	0.0449871	0.528195	1.09824	0	0	-0.175536	-0.226947	0.305954	0.659415	0.888638	0	0
0.17	-3.00028	1.42385	-1.73848	0.665944	-0.199876	0.968439	-0.10991	0.00540362	-0.25319	0.193328	0.108336	0	0	0.367517	-0.0723833	-0.0912012	1.1859	-0.0153447	0	0	-0.22686	0.0625067	-0.0332983	-0.0734011	-0.181473	0.054663	0.525365	1.10133	0	0	-0.182039	-0.22613	0.29742	0.659097	0.886001	0	0
0.18	-2.98544	1.41978	-1.76239	0.667065	-0.190491	0.968926	-0.131258	0.0041829	-0.237387	0.178945	0.108394	0	0	0.367339	-0.0738159	-0.105035	1.1435	-0.000272452	0	0	-0.231993	0.0574324	-0.0277981	-0.0654306	-0.181462	0.0645803	0.521475	1.10499	0	0	-0.188542	-0.225013	0.29115	0.657701	0.88355	0	0
0.19	-2.97381	1.41705	-1.78281	0.668051	-0.181055	0.969131	-0.149912	0.00278993	-0.223019	0.167396	0.109577	0	0	0.366928	-0.0757951	-0.119829	1.0983	0.0137345	0	0	-0.235386	0.0531498	-0.022593	-0.0578569	-0.181806	0.0754379	0.517585	1.10854	0	0	-0.195046	-0.223459	0.285579	0.65627	0.880948	0	0
